<mxfile host="app.diagrams.net" modified="2022-09-21T10:42:06.576Z" agent="5.0 (Macintosh; Intel Mac OS X 10_15_7) AppleWebKit/537.36 (KHTML, like Gecko) Chrome/105.0.0.0 Safari/537.36 Edg/105.0.1343.42" etag="Acg3qoDGWZeFYmn3cq_F" version="20.2.2" type="github">
  <diagram id="JO30uKwMSFEYLNpEbk4p" name="Page-1">
    <mxGraphModel dx="898" dy="621" grid="1" gridSize="10" guides="1" tooltips="1" connect="1" arrows="1" fold="1" page="1" pageScale="1" pageWidth="850" pageHeight="1100" math="0" shadow="0">
      <root>
        <mxCell id="0" />
        <mxCell id="1" parent="0" />
      </root>
    </mxGraphModel>
  </diagram>
</mxfile>
